<svg xmlns="http://www.w3.org/2000/svg" xmlns:xlink="http://www.w3.org/1999/xlink" width="1080" zoomAndPan="magnify" viewBox="0 0 810 809.999993" height="1080" preserveAspectRatio="xMidYMid meet" version="1.0"><defs><g/></defs><g fill="#e1181f" fill-opacity="0.4"><g transform="translate(162.529978, 403.638178)"><g><path d="M 35.4375 -31.5625 L 39.75 -101.5625 L 61.015625 -103.4375 L 69.625 -6.15625 L 55.15625 -4.875 L 48.984375 -74.640625 L 44.609375 -3.953125 L 30.140625 -2.671875 L 12.671875 -70.4375 L 18.75 -1.65625 L 5.421875 -0.484375 L -3.1875 -97.765625 L 18.0625 -99.640625 Z M 35.4375 -31.5625 "/></g></g></g><g fill="#e1181f" fill-opacity="0.4"><g transform="translate(250.966434, 396.169355)"><g><path d="M 55.140625 -3.140625 L 39.6875 -2.265625 L 36.03125 -19.796875 L 17.234375 -18.734375 L 15.59375 -0.890625 L 1.53125 -0.09375 L 11.5625 -98.484375 L 34 -99.75 Z M 18.4375 -32.078125 L 33.1875 -32.921875 L 23 -81.8125 Z M 18.4375 -32.078125 "/></g></g></g><g fill="#e1181f" fill-opacity="0.4"><g transform="translate(321.028693, 392.343517)"><g><path d="M 17.203125 -71.234375 L 19.234375 -0.546875 L 5.4375 -0.15625 L 2.625 -97.765625 L 21.859375 -98.3125 L 39.3125 -40.34375 L 37.625 -98.765625 L 51.296875 -99.171875 L 54.109375 -1.5625 L 38.34375 -1.109375 Z M 17.203125 -71.234375 "/></g></g></g><g fill="#e1181f" fill-opacity="0.4"><g transform="translate(393.97077, 390.460618)"><g><path d="M 19.65625 -22.46875 C 19.65625 -18.9375 20.375 -16.445312 21.8125 -15 C 23.257812 -13.5625 25.191406 -12.847656 27.609375 -12.859375 C 30.023438 -12.859375 31.953125 -13.578125 33.390625 -15.015625 C 34.835938 -16.460938 35.5625 -18.953125 35.5625 -22.484375 L 35.515625 -75.21875 C 35.503906 -78.75 34.773438 -81.234375 33.328125 -82.671875 C 31.890625 -84.117188 29.960938 -84.84375 27.546875 -84.84375 C 25.128906 -84.832031 23.195312 -84.101562 21.75 -82.65625 C 20.3125 -81.21875 19.597656 -78.734375 19.609375 -75.203125 Z M 4.265625 -74.21875 C 4.253906 -82.125 6.242188 -88.191406 10.234375 -92.421875 C 14.234375 -96.660156 20 -98.785156 27.53125 -98.796875 C 35.0625 -98.796875 40.828125 -96.679688 44.828125 -92.453125 C 48.835938 -88.234375 50.847656 -82.171875 50.859375 -74.265625 L 50.90625 -23.484375 C 50.90625 -15.578125 48.90625 -9.503906 44.90625 -5.265625 C 40.914062 -1.035156 35.15625 1.078125 27.625 1.078125 C 20.09375 1.085938 14.320312 -1.015625 10.3125 -5.234375 C 6.3125 -9.460938 4.3125 -15.53125 4.3125 -23.4375 Z M 4.265625 -74.21875 "/></g></g></g><g fill="#e1181f" fill-opacity="0.4"><g transform="translate(462.689974, 390.618397)"><g><path d="M 22.265625 -53.734375 L 42.0625 -53.25 L 41.71875 -39.296875 L 21.921875 -39.78125 L 20.921875 0.515625 L 5.578125 0.140625 L 8 -97.484375 L 48.578125 -96.484375 L 48.234375 -82.53125 L 23 -83.15625 Z M 22.265625 -53.734375 "/></g></g></g><g fill="#e1181f" fill-opacity="0.4"><g transform="translate(524.184201, 392.305913)"><g><path d="M 10.34375 -97.265625 L 25.65625 -96.515625 L 21.578125 -12.921875 L 46.796875 -11.6875 L 46.109375 2.25 L 5.578125 0.265625 Z M 10.34375 -97.265625 "/></g></g></g><g fill="#e1181f" fill-opacity="0.4"><g transform="translate(585.341338, 395.540257)"><g><path d="M 12.28125 -97.03125 L 27.59375 -95.984375 L 20.875 1.4375 L 5.5625 0.390625 Z M 12.28125 -97.03125 "/></g></g></g><g fill="#e1181f" fill-opacity="0.4"><g transform="translate(625.34601, 398.263953)"><g><path d="M 65.4375 -92.078125 L 45.140625 -46.296875 L 57.65625 5.28125 L 41.53125 3.796875 L 32.546875 -35.828125 L 16.40625 1.5 L 2.078125 0.1875 L 23.75 -48.265625 L 12.078125 -96.953125 L 27.921875 -95.515625 L 36.1875 -58.609375 L 51.265625 -93.375 Z M 65.4375 -92.078125 "/></g></g></g><g fill="#e1181f" fill-opacity="1"><g transform="translate(158.707616, 399.815816)"><g><path d="M 35.4375 -31.5625 L 39.75 -101.5625 L 61.015625 -103.4375 L 69.625 -6.15625 L 55.15625 -4.875 L 48.984375 -74.640625 L 44.609375 -3.953125 L 30.140625 -2.671875 L 12.671875 -70.4375 L 18.75 -1.65625 L 5.421875 -0.484375 L -3.1875 -97.765625 L 18.0625 -99.640625 Z M 35.4375 -31.5625 "/></g></g></g><g fill="#e1181f" fill-opacity="1"><g transform="translate(247.144057, 392.347022)"><g><path d="M 55.140625 -3.140625 L 39.6875 -2.265625 L 36.03125 -19.796875 L 17.234375 -18.734375 L 15.59375 -0.890625 L 1.53125 -0.09375 L 11.5625 -98.484375 L 34 -99.75 Z M 18.4375 -32.078125 L 33.1875 -32.921875 L 23 -81.8125 Z M 18.4375 -32.078125 "/></g></g></g><g fill="#e1181f" fill-opacity="1"><g transform="translate(317.206331, 388.521181)"><g><path d="M 17.203125 -71.234375 L 19.234375 -0.546875 L 5.4375 -0.15625 L 2.625 -97.765625 L 21.859375 -98.3125 L 39.3125 -40.34375 L 37.625 -98.765625 L 51.296875 -99.171875 L 54.109375 -1.5625 L 38.34375 -1.109375 Z M 17.203125 -71.234375 "/></g></g></g><g fill="#e1181f" fill-opacity="1"><g transform="translate(390.148379, 386.638285)"><g><path d="M 19.65625 -22.46875 C 19.65625 -18.9375 20.375 -16.445312 21.8125 -15 C 23.257812 -13.5625 25.191406 -12.847656 27.609375 -12.859375 C 30.023438 -12.859375 31.953125 -13.578125 33.390625 -15.015625 C 34.835938 -16.460938 35.5625 -18.953125 35.5625 -22.484375 L 35.515625 -75.21875 C 35.503906 -78.75 34.773438 -81.234375 33.328125 -82.671875 C 31.890625 -84.117188 29.960938 -84.84375 27.546875 -84.84375 C 25.128906 -84.832031 23.195312 -84.101562 21.75 -82.65625 C 20.3125 -81.21875 19.597656 -78.734375 19.609375 -75.203125 Z M 4.265625 -74.21875 C 4.253906 -82.125 6.242188 -88.191406 10.234375 -92.421875 C 14.234375 -96.660156 20 -98.785156 27.53125 -98.796875 C 35.0625 -98.796875 40.828125 -96.679688 44.828125 -92.453125 C 48.835938 -88.234375 50.847656 -82.171875 50.859375 -74.265625 L 50.90625 -23.484375 C 50.90625 -15.578125 48.90625 -9.503906 44.90625 -5.265625 C 40.914062 -1.035156 35.15625 1.078125 27.625 1.078125 C 20.09375 1.085938 14.320312 -1.015625 10.3125 -5.234375 C 6.3125 -9.460938 4.3125 -15.53125 4.3125 -23.4375 Z M 4.265625 -74.21875 "/></g></g></g><g fill="#e1181f" fill-opacity="1"><g transform="translate(458.867614, 386.796064)"><g><path d="M 22.265625 -53.734375 L 42.0625 -53.25 L 41.71875 -39.296875 L 21.921875 -39.78125 L 20.921875 0.515625 L 5.578125 0.140625 L 8 -97.484375 L 48.578125 -96.484375 L 48.234375 -82.53125 L 23 -83.15625 Z M 22.265625 -53.734375 "/></g></g></g><g fill="#e1181f" fill-opacity="1"><g transform="translate(520.361841, 388.483549)"><g><path d="M 10.34375 -97.265625 L 25.65625 -96.515625 L 21.578125 -12.921875 L 46.796875 -11.6875 L 46.109375 2.25 L 5.578125 0.265625 Z M 10.34375 -97.265625 "/></g></g></g><g fill="#e1181f" fill-opacity="1"><g transform="translate(581.518978, 391.717892)"><g><path d="M 12.28125 -97.03125 L 27.59375 -95.984375 L 20.875 1.4375 L 5.5625 0.390625 Z M 12.28125 -97.03125 "/></g></g></g><g fill="#e1181f" fill-opacity="1"><g transform="translate(621.523578, 394.441591)"><g><path d="M 65.4375 -92.078125 L 45.140625 -46.296875 L 57.65625 5.28125 L 41.53125 3.796875 L 32.546875 -35.828125 L 16.40625 1.5 L 2.078125 0.1875 L 23.75 -48.265625 L 12.078125 -96.953125 L 27.921875 -95.515625 L 36.1875 -58.609375 L 51.265625 -93.375 Z M 65.4375 -92.078125 "/></g></g></g></svg>